<svg width="280" height="60" viewBox="0 0 280 60" fill="none" xmlns="http://www.w3.org/2000/svg">
<rect width="280" height="60" fill="url(#paint0_linear_36_70)"/>
<path d="M36.784 36.128C35.6533 36.128 34.6347 35.8827 33.728 35.392C32.8213 34.8907 32.1067 34.2027 31.584 33.328C31.072 32.4533 30.816 31.4773 30.816 30.4C30.816 29.3227 31.072 28.3467 31.584 27.472C32.1067 26.5973 32.8213 25.9147 33.728 25.424C34.6347 24.9227 35.6533 24.672 36.784 24.672C37.904 24.672 38.9173 24.9227 39.824 25.424C40.7307 25.9147 41.44 26.5973 41.952 27.472C42.464 28.336 42.72 29.312 42.72 30.4C42.72 31.488 42.464 32.4693 41.952 33.344C41.44 34.208 40.7307 34.8907 39.824 35.392C38.9173 35.8827 37.904 36.128 36.784 36.128ZM36.784 34.704C37.6053 34.704 38.3413 34.5173 38.992 34.144C39.6533 33.7707 40.1707 33.2587 40.544 32.608C40.928 31.9467 41.12 31.2107 41.12 30.4C41.12 29.5893 40.928 28.8587 40.544 28.208C40.1707 27.5467 39.6533 27.0293 38.992 26.656C38.3413 26.2827 37.6053 26.096 36.784 26.096C35.9627 26.096 35.216 26.2827 34.544 26.656C33.8827 27.0293 33.36 27.5467 32.976 28.208C32.6027 28.8587 32.416 29.5893 32.416 30.4C32.416 31.2107 32.6027 31.9467 32.976 32.608C33.36 33.2587 33.8827 33.7707 34.544 34.144C35.216 34.5173 35.9627 34.704 36.784 34.704ZM48.7465 36.096C47.8825 36.096 47.1092 35.9093 46.4265 35.536C45.7545 35.1627 45.2265 34.6507 44.8425 34C44.4585 33.3387 44.2665 32.592 44.2665 31.76C44.2665 30.928 44.4585 30.1867 44.8425 29.536C45.2265 28.8747 45.7545 28.3627 46.4265 28C47.1092 27.6267 47.8825 27.44 48.7465 27.44C49.5145 27.44 50.1972 27.5947 50.7945 27.904C51.4025 28.2133 51.8718 28.6613 52.2025 29.248L51.0345 30C50.7678 29.5947 50.4372 29.2907 50.0425 29.088C49.6478 28.8853 49.2105 28.784 48.7305 28.784C48.1758 28.784 47.6745 28.9067 47.2265 29.152C46.7892 29.3973 46.4425 29.7493 46.1865 30.208C45.9412 30.656 45.8185 31.1733 45.8185 31.76C45.8185 32.3573 45.9412 32.8853 46.1865 33.344C46.4425 33.792 46.7892 34.1387 47.2265 34.384C47.6745 34.6293 48.1758 34.752 48.7305 34.752C49.2105 34.752 49.6478 34.6507 50.0425 34.448C50.4372 34.2453 50.7678 33.9413 51.0345 33.536L52.2025 34.272C51.8718 34.8587 51.4025 35.312 50.7945 35.632C50.1972 35.9413 49.5145 36.096 48.7465 36.096ZM60.4018 28.864H57.2977V36H55.7618V28.864H52.6578V27.52H60.4018V28.864ZM64.9964 27.44C66.1697 27.44 67.0657 27.728 67.6844 28.304C68.3137 28.88 68.6284 29.7387 68.6284 30.88V36H67.1724V34.88C66.9164 35.2747 66.5484 35.5787 66.0684 35.792C65.599 35.9947 65.039 36.096 64.3884 36.096C63.439 36.096 62.6764 35.8667 62.1004 35.408C61.535 34.9493 61.2524 34.3467 61.2524 33.6C61.2524 32.8533 61.5244 32.256 62.0684 31.808C62.6124 31.3493 63.4764 31.12 64.6604 31.12H67.0924V30.816C67.0924 30.1547 66.9004 29.648 66.5164 29.296C66.1324 28.944 65.567 28.768 64.8204 28.768C64.319 28.768 63.8284 28.8533 63.3484 29.024C62.8684 29.184 62.463 29.4027 62.1324 29.68L61.4924 28.528C61.9297 28.176 62.4524 27.9093 63.0604 27.728C63.6684 27.536 64.3137 27.44 64.9964 27.44ZM64.6444 34.912C65.231 34.912 65.7377 34.784 66.1644 34.528C66.591 34.2613 66.9004 33.888 67.0924 33.408V32.224H64.7244C63.423 32.224 62.7724 32.6613 62.7724 33.536C62.7724 33.9627 62.9377 34.2987 63.2684 34.544C63.599 34.7893 64.0577 34.912 64.6444 34.912ZM77.1703 31.6C78.2689 31.8773 78.8183 32.5653 78.8183 33.664C78.8183 34.4107 78.5356 34.9867 77.9703 35.392C77.4156 35.7973 76.5836 36 75.4743 36H71.3943V27.52H75.3303C76.3329 27.52 77.1169 27.712 77.6823 28.096C78.2476 28.4693 78.5303 29.0027 78.5303 29.696C78.5303 30.144 78.4076 30.5333 78.1623 30.864C77.9276 31.184 77.5969 31.4293 77.1703 31.6ZM72.8983 31.168H75.2023C75.7889 31.168 76.2316 31.0613 76.5303 30.848C76.8396 30.6347 76.9943 30.3253 76.9943 29.92C76.9943 29.1093 76.3969 28.704 75.2023 28.704H72.8983V31.168ZM75.3623 34.816C76.0023 34.816 76.4823 34.7147 76.8023 34.512C77.1223 34.3093 77.2823 33.9947 77.2823 33.568C77.2823 33.1307 77.1329 32.8053 76.8343 32.592C76.5463 32.3787 76.0876 32.272 75.4583 32.272H72.8983V34.816H75.3623ZM81.2224 27.52H82.7584V33.696L87.9584 27.52H89.3504V36H87.8144V29.824L82.6304 36H81.2224V27.52ZM98.6518 28.864H95.5477V36H94.0118V28.864H90.9078V27.52H98.6518V28.864ZM104.142 30.4C105.22 30.4107 106.041 30.656 106.606 31.136C107.172 31.616 107.454 32.2933 107.454 33.168C107.454 34.0853 107.145 34.7947 106.526 35.296C105.918 35.7867 105.044 36.0267 103.902 36.016L100.222 36V27.52H101.758V30.384L104.142 30.4ZM103.774 34.848C104.468 34.8587 104.99 34.72 105.342 34.432C105.705 34.144 105.886 33.7173 105.886 33.152C105.886 32.5973 105.71 32.192 105.358 31.936C105.017 31.68 104.489 31.5467 103.774 31.536L101.758 31.504V34.832L103.774 34.848ZM118.314 31.584C118.88 31.7333 119.317 31.9733 119.626 32.304C119.936 32.6347 120.09 33.0453 120.09 33.536C120.09 34.0373 119.92 34.4853 119.578 34.88C119.237 35.264 118.762 35.568 118.154 35.792C117.557 36.0053 116.885 36.112 116.138 36.112C115.509 36.112 114.89 36.032 114.282 35.872C113.685 35.7013 113.152 35.4613 112.682 35.152L113.146 33.984C113.552 34.24 114.016 34.4427 114.538 34.592C115.061 34.7307 115.589 34.8 116.122 34.8C116.848 34.8 117.424 34.6773 117.85 34.432C118.288 34.176 118.506 33.8347 118.506 33.408C118.506 33.0133 118.33 32.7093 117.978 32.496C117.637 32.2827 117.152 32.176 116.522 32.176H114.97V31.072H116.41C116.986 31.072 117.44 30.9707 117.77 30.768C118.101 30.5653 118.266 30.288 118.266 29.936C118.266 29.552 118.069 29.2533 117.674 29.04C117.29 28.8267 116.768 28.72 116.106 28.72C115.264 28.72 114.373 28.9387 113.434 29.376L113.018 28.192C114.053 27.6693 115.136 27.408 116.266 27.408C116.949 27.408 117.562 27.504 118.106 27.696C118.65 27.888 119.077 28.16 119.386 28.512C119.696 28.864 119.85 29.264 119.85 29.712C119.85 30.128 119.712 30.5013 119.434 30.832C119.157 31.1627 118.784 31.4133 118.314 31.584ZM125.45 27.44C126.623 27.44 127.519 27.728 128.138 28.304C128.767 28.88 129.082 29.7387 129.082 30.88V36H127.626V34.88C127.37 35.2747 127.002 35.5787 126.522 35.792C126.052 35.9947 125.492 36.096 124.842 36.096C123.892 36.096 123.13 35.8667 122.554 35.408C121.988 34.9493 121.706 34.3467 121.706 33.6C121.706 32.8533 121.978 32.256 122.522 31.808C123.066 31.3493 123.93 31.12 125.114 31.12H127.546V30.816C127.546 30.1547 127.354 29.648 126.97 29.296C126.586 28.944 126.02 28.768 125.274 28.768C124.772 28.768 124.282 28.8533 123.802 29.024C123.322 29.184 122.916 29.4027 122.586 29.68L121.946 28.528C122.383 28.176 122.906 27.9093 123.514 27.728C124.122 27.536 124.767 27.44 125.45 27.44ZM125.098 34.912C125.684 34.912 126.191 34.784 126.618 34.528C127.044 34.2613 127.354 33.888 127.546 33.408V32.224H125.178C123.876 32.224 123.226 32.6613 123.226 33.536C123.226 33.9627 123.391 34.2987 123.722 34.544C124.052 34.7893 124.511 34.912 125.098 34.912ZM138.647 27.52V36H137.271V33.312H134.807H134.631L132.775 36H131.127L133.191 33.104C132.551 32.912 132.061 32.5973 131.719 32.16C131.378 31.712 131.207 31.1573 131.207 30.496C131.207 29.5253 131.538 28.7893 132.199 28.288C132.861 27.776 133.773 27.52 134.935 27.52H138.647ZM132.775 30.544C132.775 31.1093 132.951 31.5307 133.303 31.808C133.666 32.0747 134.205 32.208 134.919 32.208H137.271V28.864H134.983C133.511 28.864 132.775 29.424 132.775 30.544ZM147.42 31.6C148.519 31.8773 149.068 32.5653 149.068 33.664C149.068 34.4107 148.786 34.9867 148.22 35.392C147.666 35.7973 146.834 36 145.724 36H141.644V27.52H145.58C146.583 27.52 147.367 27.712 147.932 28.096C148.498 28.4693 148.78 29.0027 148.78 29.696C148.78 30.144 148.658 30.5333 148.412 30.864C148.178 31.184 147.847 31.4293 147.42 31.6ZM143.148 31.168H145.452C146.039 31.168 146.482 31.0613 146.78 30.848C147.09 30.6347 147.244 30.3253 147.244 29.92C147.244 29.1093 146.647 28.704 145.452 28.704H143.148V31.168ZM145.612 34.816C146.252 34.816 146.732 34.7147 147.052 34.512C147.372 34.3093 147.532 33.9947 147.532 33.568C147.532 33.1307 147.383 32.8053 147.084 32.592C146.796 32.3787 146.338 32.272 145.708 32.272H143.148V34.816H145.612ZM154.768 32.416H153.008V36H151.472V27.52H153.008V31.104H154.8L157.552 27.52H159.2L155.984 31.6L159.424 36H157.616L154.768 32.416ZM168.119 27.52L164.007 36.848C163.644 37.712 163.217 38.32 162.727 38.672C162.247 39.024 161.665 39.2 160.983 39.2C160.567 39.2 160.161 39.1307 159.767 38.992C159.383 38.864 159.062 38.672 158.806 38.416L159.463 37.264C159.9 37.68 160.407 37.888 160.983 37.888C161.356 37.888 161.665 37.7867 161.911 37.584C162.167 37.392 162.396 37.056 162.599 36.576L162.871 35.984L159.127 27.52H160.727L163.687 34.304L166.615 27.52H168.119Z" fill="white"/>
<g clip-path="url(#clip0_36_70)">
<path d="M247.334 29.5318L241.993 24.1917C241.87 24.0681 241.705 24 241.529 24C241.353 24 241.189 24.0681 241.065 24.1917L240.672 24.5849C240.416 24.8411 240.416 25.2575 240.672 25.5133L245.156 29.9975L240.667 34.4867C240.543 34.6104 240.475 34.7751 240.475 34.9508C240.475 35.1267 240.543 35.2915 240.667 35.4152L241.06 35.8083C241.184 35.9319 241.348 36 241.524 36C241.7 36 241.865 35.9319 241.988 35.8083L247.334 30.4634C247.457 30.3394 247.525 30.1738 247.525 29.9978C247.525 29.8211 247.457 29.6557 247.334 29.5318Z" fill="white"/>
</g>
<defs>
<linearGradient id="paint0_linear_36_70" x1="1.56462e-06" y1="30" x2="280" y2="30" gradientUnits="userSpaceOnUse">
<stop stop-color="#074D88"/>
<stop offset="1" stop-color="#61B3C9"/>
</linearGradient>
<clipPath id="clip0_36_70">
<rect width="12" height="12" fill="white" transform="translate(238 24)"/>
</clipPath>
</defs>
</svg>
