<svg width="220" height="220" viewBox="0 0 220 220" fill="none" xmlns="http://www.w3.org/2000/svg">
<rect width="220" height="220" fill="white"/>
<g clip-path="url(#clip0_16_605)">
<rect width="120" height="120" transform="translate(50 50)" fill="white"/>
<mask id="mask0_16_605" style="mask-type:alpha" maskUnits="userSpaceOnUse" x="50" y="66" width="121" height="87">
<path d="M114.741 67.4837V152.161H101.047V144.286C98.6881 147.178 95.759 149.346 92.2594 150.791C88.8358 152.237 85.0318 152.96 80.8474 152.96C74.9892 152.96 69.7016 151.666 64.9847 149.08C60.3438 146.493 56.6919 142.841 54.0291 138.124C51.3663 133.331 50.0349 127.853 50.0349 121.691C50.0349 115.528 51.3663 110.089 54.0291 105.372C56.6919 100.655 60.3438 97.0027 64.9847 94.416C69.7016 91.8293 74.9892 90.5359 80.8474 90.5359C84.8796 90.5359 88.5695 91.2206 91.917 92.5901C95.2645 93.9595 98.1175 96.0137 100.476 98.7526V67.4837H114.741ZM82.5592 140.749C85.9828 140.749 89.064 139.988 91.8029 138.466C94.5418 136.869 96.71 134.624 98.3077 131.733C99.9054 128.842 100.704 125.495 100.704 121.691C100.704 117.887 99.9054 114.539 98.3077 111.648C96.71 108.757 94.5418 106.551 91.8029 105.029C89.064 103.431 85.9828 102.633 82.5592 102.633C79.1355 102.633 76.0543 103.431 73.3154 105.029C70.5765 106.551 68.4083 108.757 66.8106 111.648C65.2129 114.539 64.414 117.887 64.414 121.691C64.414 125.495 65.2129 128.842 66.8106 131.733C68.4083 134.624 70.5765 136.869 73.3154 138.466C76.0543 139.988 79.1355 140.749 82.5592 140.749Z" fill="black"/>
<path d="M158.166 78.2109C152.156 78.2109 149.151 81.4824 149.151 88.0253V91.6771H165.927V103.089H149.607V152.161H135.342V103.089H125.3V91.6771H135.342V87.797C135.342 81.2541 137.244 76.1187 141.048 72.3908C144.852 68.5868 150.216 66.6848 157.139 66.6848C162.617 66.6848 166.916 67.788 170.035 69.9943L166.041 80.7216C163.606 79.0478 160.981 78.2109 158.166 78.2109Z" fill="black"/>
</mask>
<g mask="url(#mask0_16_605)">
<rect x="50" y="50" width="120" height="120" fill="url(#paint0_linear_16_605)"/>
</g>
</g>
<defs>
<linearGradient id="paint0_linear_16_605" x1="170" y1="50" x2="50" y2="170" gradientUnits="userSpaceOnUse">
<stop stop-color="#61B3C9"/>
<stop offset="1" stop-color="#074D88"/>
</linearGradient>
<clipPath id="clip0_16_605">
<rect width="120" height="120" fill="white" transform="translate(50 50)"/>
</clipPath>
</defs>
</svg>
